<svg width="162" height="116" viewBox="0 0 162 116" fill="none" xmlns="http://www.w3.org/2000/svg">
<path fill-rule="evenodd" clip-rule="evenodd" d="M114.274 65.6741C117.163 69.8022 118.996 74.5478 119.771 79.9109C123.401 77.4058 126.29 74.195 128.44 70.2785C130.624 66.3621 131.717 62.0752 131.717 57.4178C131.717 52.4429 130.501 47.9266 128.07 43.8691C125.674 39.7762 122.432 36.5125 118.344 34.078C114.291 31.6435 109.781 30.4262 104.812 30.4262C99.9142 30.4262 95.4389 31.6258 91.3865 34.0251C87.3693 36.389 84.2684 39.4234 82.0836 43.1281C83.2464 44.3278 84.3212 45.6156 85.3079 46.9916C86.3298 48.3324 87.2636 49.8143 88.1094 51.4373C93.677 51.7902 98.6985 53.2191 103.174 55.7242C107.684 58.1941 111.384 61.5107 114.274 65.6741ZM65.0106 25.2925L72.0935 32.4373C73.1859 33.5311 74.4897 34.078 76.005 34.078C77.5555 34.078 78.8417 33.5487 79.8636 32.4902C80.8855 31.4318 81.3964 30.1616 81.3964 28.6797C81.3964 27.1625 80.8679 25.8747 79.8107 24.8162L72.6749 17.5655C71.6178 16.507 70.3316 15.9777 68.8163 15.9777C67.3011 15.9777 66.0149 16.507 64.9577 17.5655C63.9006 18.624 63.372 19.9118 63.372 21.429C63.372 22.9461 63.9182 24.234 65.0106 25.2925ZM100.901 20.5292C101.958 21.623 103.244 22.1699 104.759 22.1699C106.24 22.1699 107.508 21.623 108.565 20.5292C109.658 19.4355 110.204 18.1476 110.204 16.6657V6.50418C110.204 5.02228 109.658 3.73445 108.565 2.64067C107.508 1.54689 106.24 1 104.759 1C103.244 1 101.958 1.54689 100.901 2.64067C99.8437 3.73445 99.3152 5.02228 99.3152 6.50418V16.6657C99.3152 18.1476 99.8437 19.4355 100.901 20.5292ZM141.548 61.2813C142.641 62.3398 143.927 62.8691 145.407 62.8691H155.503C157.018 62.8691 158.304 62.3398 159.361 61.2813C160.454 60.2228 161 58.935 161 57.4178C161 55.9359 160.454 54.6657 159.361 53.6072C158.304 52.5135 157.018 51.9666 155.503 51.9666H145.407C143.927 51.9666 142.641 52.5135 141.548 53.6072C140.456 54.6657 139.91 55.9359 139.91 57.4178C139.91 58.935 140.456 60.2228 141.548 61.2813ZM128.07 28.6797C128.105 30.1968 128.634 31.4847 129.655 32.5432C130.677 33.6017 131.964 34.1309 133.514 34.1309C135.065 34.0956 136.368 33.5487 137.426 32.4902L144.561 25.3454C145.654 24.2869 146.2 22.9991 146.2 21.4819C146.2 19.9647 145.671 18.6769 144.614 17.6184C143.557 16.5599 142.271 16.0483 140.756 16.0836C139.276 16.0836 137.989 16.6128 136.897 17.6713L129.708 24.8162C128.616 25.8747 128.07 27.1625 128.07 28.6797ZM129.708 90.1253L136.897 97.2702C137.954 98.3287 139.223 98.8579 140.703 98.8579C142.218 98.8932 143.504 98.3816 144.561 97.3231C145.618 96.2646 146.129 94.9768 146.094 93.4596C146.094 91.9424 145.566 90.6546 144.508 89.5961L137.373 82.3983C136.315 81.3398 135.012 80.8106 133.461 80.8106C131.946 80.8106 130.677 81.3398 129.655 82.3983C128.598 83.4568 128.07 84.7447 128.07 86.2618C128.105 87.779 128.651 89.0668 129.708 90.1253Z" fill="#FFAA00"/>
<path d="M23.8345 115C19.2887 115 15.2892 114.1 11.8358 112.301C8.41769 110.501 5.75719 107.996 3.85431 104.786C1.95144 101.61 1 97.9406 1 93.7772C1 88.7317 2.40954 84.3565 5.22861 80.6518C8.08292 76.9118 11.8534 74.4067 16.5401 73.1365C16.9278 68.6202 18.1082 64.4215 20.0816 60.5404C22.0549 56.624 24.6274 53.2191 27.7988 50.3259C30.9703 47.4327 34.5822 45.1922 38.6346 43.6045C42.7223 41.9814 47.039 41.1699 51.5847 41.1699C56.7295 41.1699 61.3282 42.0167 65.3806 43.7103C69.433 45.3686 72.9392 47.6444 75.8992 50.5376C78.8593 53.4308 81.2907 56.6592 83.1936 60.2228C88.726 60.2228 93.6594 61.4225 97.9937 63.8217C102.328 66.221 105.746 69.5023 108.248 73.6657C110.75 77.7939 112.001 82.4865 112.001 87.7437C112.001 92.8951 110.821 97.5172 108.46 101.61C106.099 105.738 102.874 109.002 98.7866 111.401C94.7342 113.8 90.1356 115 84.9908 115H23.8345Z" fill="#F6F6F6"/>
<path d="M51.585 40.6699C56.783 40.6699 61.4474 41.5251 65.5693 43.2471H65.5703C69.6788 44.9284 73.2403 47.2389 76.249 50.1797C79.1722 53.0369 81.586 56.2202 83.4922 59.7266C88.979 59.7691 93.8981 60.9824 98.2363 63.3838L99.0518 63.8525C103.077 66.2462 106.287 69.4318 108.676 73.4062L108.911 73.8037C111.307 77.9197 112.501 82.571 112.501 87.7441C112.501 92.9741 111.301 97.6824 108.893 101.857L108.894 101.858C106.489 106.062 103.203 109.389 99.04 111.832L99.0391 111.831C94.903 114.279 90.2163 115.5 84.9912 115.5H23.835C19.5107 115.5 15.653 114.697 12.2744 113.079L11.6025 112.743C8.10576 110.902 5.37548 108.333 3.42383 105.04V105.039C1.47015 101.777 0.500029 98.0182 0.5 93.7773C0.5 88.6322 1.94009 84.1478 4.83105 80.3486L5.1084 79.9932C7.92772 76.4467 11.5884 74.0302 16.0752 72.7471C16.4978 68.3008 17.6827 64.1546 19.6357 60.3135C21.6358 56.3446 24.245 52.8908 27.4619 49.9561C30.4782 47.2045 33.8877 45.0351 37.6875 43.4482L38.4521 43.1387C42.5999 41.4921 46.979 40.6699 51.585 40.6699ZM133.461 80.3105C135.034 80.3105 136.392 80.8187 137.507 81.835L137.727 82.0449L137.728 82.0459L144.862 89.2432L145.071 89.4619C146.082 90.5714 146.591 91.9083 146.594 93.4482V93.7549C146.559 95.2759 145.998 96.5924 144.915 97.6768C143.763 98.8305 142.348 99.3928 140.703 99.3574V99.3584C139.09 99.3584 137.694 98.7752 136.545 97.625L129.355 90.4795L129.354 90.4785C128.205 89.3277 127.608 87.9169 127.57 86.2734L127.569 86.2617L127.576 85.9561C127.644 84.4386 128.221 83.1266 129.302 82.0449C130.42 80.8898 131.818 80.3106 133.461 80.3105ZM104.812 29.9258C109.866 29.9258 114.466 31.1655 118.6 33.6484L119.37 34.123C123.168 36.5442 126.213 39.7087 128.499 43.6123L128.728 44.002C131.055 48.04 132.217 52.5157 132.217 57.418C132.217 62.156 131.104 66.5256 128.877 70.5186L128.878 70.5195C126.691 74.5031 123.749 77.7724 120.055 80.3223L119.392 80.7803L119.276 79.9824C118.511 74.6909 116.706 70.0202 113.864 65.9609L113.863 65.959C111.019 61.8603 107.377 58.5962 102.934 56.1631L102.93 56.1602C98.5254 53.6948 93.5776 52.2851 88.0781 51.9365L87.7959 51.9189L87.666 51.668C86.8324 50.0682 85.9133 48.6111 84.9102 47.2949L84.9062 47.2891L84.9014 47.2832C83.9289 45.927 82.87 44.6582 81.7246 43.4766L81.459 43.2021L81.6533 42.874C83.7453 39.3268 86.6571 36.3866 90.3779 34.0527L91.1328 33.5938C95.2652 31.1474 99.829 29.9258 104.812 29.9258ZM155.503 51.4668C157.149 51.4668 158.56 52.0652 159.709 53.248L159.925 53.4668C160.969 54.5739 161.5 55.8981 161.5 57.418C161.5 59.0682 160.899 60.4824 159.714 61.6338L159.715 61.6348C158.563 62.7883 157.149 63.3691 155.503 63.3691H145.407C143.793 63.3691 142.383 62.7867 141.2 61.6406C140.011 60.4883 139.41 59.0708 139.41 57.418C139.41 55.7968 140.014 54.3979 141.2 53.248C142.381 52.0688 143.791 51.4668 145.407 51.4668H155.503ZM141.051 15.584C142.57 15.6185 143.885 16.1805 144.968 17.2646L145.178 17.4844C146.191 18.5964 146.7 19.9371 146.7 21.4814C146.7 23.1318 146.1 24.5468 144.914 25.6982L144.915 25.6992L137.779 32.8438C136.628 33.997 135.199 34.5928 133.525 34.6309H133.514C131.941 34.6308 130.596 34.1222 129.51 33.1016L129.296 32.8906C128.184 31.7387 127.608 30.3297 127.57 28.6914L127.569 28.6797L127.577 28.3721C127.648 26.8504 128.245 25.5373 129.36 24.457L136.545 17.3164L136.549 17.3125L136.773 17.1035C137.906 16.0978 139.236 15.5866 140.744 15.584H141.051ZM68.8164 15.4775C70.3596 15.4776 71.6987 15.9884 72.8096 17.0029L73.0283 17.2119L73.0312 17.2148L80.1641 24.4629L80.374 24.6826C81.3869 25.7947 81.8965 27.1352 81.8965 28.6797C81.8965 30.1892 81.4039 31.5095 80.4258 32.6182L80.2236 32.8379C79.102 33.9997 77.6829 34.5781 76.0049 34.5781C74.354 34.5781 72.9233 33.9766 71.7393 32.791L71.7383 32.7891L64.6553 25.6445V25.6436C63.4711 24.4925 62.8721 23.078 62.8721 21.4287C62.8721 19.7813 63.4514 18.3656 64.6035 17.2119L64.8232 17.0029C65.9341 15.9884 67.2732 15.4775 68.8164 15.4775ZM104.76 0.5C106.377 0.500066 107.772 1.10297 108.919 2.28711L109.134 2.51172C110.174 3.64763 110.704 4.98465 110.704 6.50391V16.666C110.704 18.2839 110.102 19.6942 108.924 20.876L108.925 20.877C107.776 22.065 106.379 22.6699 104.76 22.6699C103.108 22.6699 101.692 22.0678 100.541 20.877C99.3965 19.6928 98.8155 18.2812 98.8154 16.666V6.50391C98.8155 4.88872 99.3965 3.47715 100.541 2.29297C101.692 1.10215 103.108 0.5 104.76 0.5Z" stroke="black" stroke-opacity="0.1"/>
</svg>
