<svg width="13" height="13" viewBox="0 0 13 13" fill="none" xmlns="http://www.w3.org/2000/svg">
<path d="M6.5 13C5.6036 13 4.76242 12.8301 3.97647 12.4902C3.19052 12.1546 2.50016 11.6894 1.90539 11.0946C1.31062 10.4998 0.843301 9.80948 0.503431 9.02353C0.16781 8.23758 0 7.39641 0 6.5C0 5.6036 0.16781 4.76242 0.503431 3.97647C0.843301 3.19052 1.31062 2.50016 1.90539 1.90539C2.50016 1.30637 3.19052 0.839052 3.97647 0.503431C4.76242 0.16781 5.6036 0 6.5 0C7.39641 0 8.23758 0.16781 9.02353 0.503431C9.80948 0.839052 10.4998 1.30637 11.0946 1.90539C11.6894 2.50016 12.1546 3.19052 12.4902 3.97647C12.8301 4.76242 13 5.6036 13 6.5C13 7.39641 12.8301 8.23758 12.4902 9.02353C12.1546 9.80948 11.6894 10.4998 11.0946 11.0946C10.4998 11.6894 9.80948 12.1546 9.02353 12.4902C8.23758 12.8301 7.39641 13 6.5 13ZM6.5 11.9167C7.24771 11.9167 7.94869 11.7765 8.60294 11.4961C9.25719 11.2157 9.83284 10.827 10.3299 10.3299C10.827 9.83284 11.2157 9.25719 11.4961 8.60294C11.7765 7.94869 11.9167 7.24771 11.9167 6.5C11.9167 5.75229 11.7765 5.05131 11.4961 4.39706C11.2157 3.73856 10.827 3.16291 10.3299 2.6701C9.83284 2.17304 9.25719 1.78431 8.60294 1.50392C7.94869 1.22353 7.24771 1.08333 6.5 1.08333C5.75229 1.08333 5.05131 1.22353 4.39706 1.50392C3.74281 1.78431 3.16716 2.17304 2.6701 2.6701C2.17304 3.16291 1.78431 3.73856 1.50392 4.39706C1.22353 5.05131 1.08333 5.75229 1.08333 6.5C1.08333 7.24771 1.22353 7.94869 1.50392 8.60294C1.78431 9.25719 2.17304 9.83284 2.6701 10.3299C3.16716 10.827 3.74281 11.2157 4.39706 11.4961C5.05131 11.7765 5.75229 11.9167 6.5 11.9167ZM4.59461 9.41863C4.46716 9.41863 4.3567 9.37614 4.26324 9.29118C4.17402 9.20621 4.12941 9.10213 4.12941 8.97892C4.12941 8.86422 4.16552 8.75376 4.23775 8.64755L5.86275 6.40441L4.33333 4.30147C4.24412 4.17827 4.19951 4.05507 4.19951 3.93186C4.19951 3.80441 4.24837 3.69395 4.34608 3.60049C4.44379 3.50703 4.56062 3.46029 4.69657 3.46029C4.80278 3.46029 4.89199 3.48154 4.96422 3.52402C5.03644 3.5665 5.10866 3.63873 5.18088 3.74069L6.53824 5.7098H6.5701L7.90196 3.74706C7.96993 3.64085 8.03791 3.5665 8.10588 3.52402C8.17811 3.48154 8.2652 3.46029 8.36716 3.46029C8.50311 3.46029 8.61569 3.5049 8.7049 3.59412C8.79837 3.67909 8.8451 3.78317 8.8451 3.90637C8.8451 4.02108 8.80474 4.13366 8.72402 4.24412L7.11176 6.43628L8.71128 8.62206C8.79199 8.72402 8.83235 8.83448 8.83235 8.95343C8.83235 9.08938 8.7835 9.20196 8.68579 9.29118C8.59232 9.37614 8.47337 9.41863 8.32892 9.41863C8.23121 9.41863 8.14837 9.39739 8.08039 9.3549C8.01242 9.31242 7.93807 9.23595 7.85735 9.12549L6.48088 7.16275H6.45539L5.07892 9.12549C4.9982 9.23595 4.92386 9.31242 4.85588 9.3549C4.78791 9.39739 4.70082 9.41863 4.59461 9.41863Z" fill="#A0A0A0"/>
</svg>
