<svg width="10" height="18" viewBox="0 0 10 18" fill="none" xmlns="http://www.w3.org/2000/svg">
<path d="M0 9C0.0063674 8.79287 0.0445718 8.60245 0.114613 8.42873C0.191022 8.25501 0.305635 8.08797 0.458453 7.92762L7.8128 0.380846C8.05476 0.126949 8.35084 0 8.70105 0C8.94301 0 9.1595 0.0601336 9.35052 0.180401C9.54791 0.300668 9.70392 0.464365 9.81853 0.671492C9.93951 0.871938 10 1.09577 10 1.34298C10 1.71715 9.86628 2.04454 9.59885 2.32517L3.05635 9L9.59885 15.6748C9.86628 15.9621 10 16.2895 10 16.657C10 16.9109 9.93951 17.1381 9.81853 17.3385C9.70392 17.539 9.54791 17.6993 9.35052 17.8196C9.1595 17.9399 8.94301 18 8.70105 18C8.35084 18 8.05476 17.8731 7.8128 17.6192L0.458453 10.0724C0.299268 9.91203 0.181471 9.74499 0.105062 9.57127C0.0350207 9.39087 0 9.20045 0 9Z" fill="black"/>
</svg>
