<svg width="140" height="140" viewBox="0 0 140 140" fill="none" xmlns="http://www.w3.org/2000/svg">
<path d="M70.0319 25.7497C68.5007 25.7497 67.1822 25.2195 66.0763 24.1591C65.0129 23.0562 64.4813 21.7414 64.4813 20.2144V6.53527C64.4813 5.0083 65.0129 3.71461 66.0763 2.65422C67.1822 1.55141 68.5007 1 70.0319 1C71.5206 1 72.7966 1.55141 73.8599 2.65422C74.9658 3.71461 75.5187 5.0083 75.5187 6.53527V20.2144C75.5187 21.7414 74.9658 23.0562 73.8599 24.1591C72.7966 25.2195 71.5206 25.7497 70.0319 25.7497ZM101.294 38.7925C100.231 37.7321 99.699 36.4384 99.699 34.9115C99.699 33.3845 100.231 32.0908 101.294 31.0304L111.119 21.2324C112.183 20.172 113.48 19.6418 115.011 19.6418C116.542 19.6418 117.84 20.172 118.903 21.2324C119.966 22.2928 120.498 23.6077 120.498 25.177C120.498 26.704 119.966 27.9977 118.903 29.0581L109.141 38.7925C108.078 39.8953 106.76 40.4467 105.186 40.4467C103.655 40.4043 102.357 39.8529 101.294 38.7925ZM114.245 70.0318C114.245 68.5048 114.777 67.2112 115.84 66.1508C116.946 65.0479 118.265 64.4965 119.796 64.4965H133.513C135.002 64.4965 136.278 65.0479 137.341 66.1508C138.447 67.2112 139 68.5048 139 70.0318C139 71.5164 138.447 72.81 137.341 73.9129C136.278 74.9733 135.002 75.5035 133.513 75.5035H119.796C118.265 75.5035 116.946 74.9733 115.84 73.9129C114.777 72.81 114.245 71.5164 114.245 70.0318ZM101.294 101.271C102.357 100.253 103.655 99.7441 105.186 99.7441C106.717 99.7441 108.014 100.253 109.078 101.271L118.903 111.069C119.966 112.087 120.498 113.36 120.498 114.887C120.498 116.414 119.966 117.728 118.903 118.831C117.84 119.849 116.542 120.358 115.011 120.358C113.48 120.401 112.183 119.913 111.119 118.895L101.294 109.033C100.231 108.015 99.699 106.743 99.699 105.216C99.699 103.689 100.231 102.374 101.294 101.271ZM70.0319 114.314C71.5206 114.314 72.7966 114.865 73.8599 115.968C74.9658 117.029 75.5187 118.301 75.5187 119.786V133.528C75.5187 135.013 74.9658 136.285 73.8599 137.346C72.7966 138.449 71.5206 139 70.0319 139C68.5007 139 67.1822 138.449 66.0763 137.346C65.0129 136.285 64.4813 135.013 64.4813 133.528V119.786C64.4813 118.301 65.0129 117.029 66.0763 115.968C67.1822 114.865 68.5007 114.314 70.0319 114.314ZM38.706 101.271C39.7268 102.374 40.2372 103.689 40.2372 105.216C40.2372 106.743 39.7055 108.015 38.6422 109.033L28.8807 118.831C27.8174 119.849 26.4988 120.337 24.9251 120.295C23.3939 120.295 22.0966 119.786 21.0333 118.768C20.0125 117.665 19.5021 116.35 19.5021 114.823C19.5021 113.296 20.0338 112.024 21.0971 111.006L30.8585 101.271C31.9219 100.253 33.2191 99.7441 34.7503 99.7441C36.3241 99.7441 37.6426 100.253 38.706 101.271ZM25.7545 70.0318C25.7545 71.5164 25.2016 72.81 24.0957 73.9129C23.0324 74.9733 21.7351 75.5035 20.2039 75.5035H6.48682C4.99815 75.5035 3.70088 74.9733 2.59501 73.9129C1.53167 72.81 1 71.5164 1 70.0318C1 68.5048 1.53167 67.2112 2.59501 66.1508C3.70088 65.0479 4.99815 64.4965 6.48682 64.4965H20.2039C21.7351 64.4965 23.0324 65.0479 24.0957 66.1508C25.2016 67.2112 25.7545 68.5048 25.7545 70.0318ZM38.6422 38.7925C37.5788 39.8529 36.2816 40.3831 34.7503 40.3831C33.2191 40.3831 31.9219 39.8529 30.8585 38.7925L21.0971 28.9945C20.0763 27.9765 19.5659 26.704 19.5659 25.177C19.5659 23.6077 20.0976 22.2928 21.1609 21.2324C22.2242 20.172 23.5215 19.663 25.0527 19.7054C26.6264 19.7054 27.9237 20.2144 28.9445 21.2324L38.706 31.0304C39.7268 32.0484 40.2372 33.3421 40.2372 34.9115C40.2372 36.4809 39.7055 37.7745 38.6422 38.7925ZM69.9681 102.416C65.5021 102.416 61.2913 101.589 57.3356 99.935C53.4226 98.2383 49.9773 95.9055 47 92.9364C44.0227 89.9673 41.6833 86.5316 39.982 82.6293C38.3232 78.6846 37.4938 74.4855 37.4938 70.0318C37.4938 65.5357 38.3232 61.3366 39.982 57.4343C41.6833 53.532 44.0227 50.0964 47 47.1272C49.9773 44.1581 53.4226 41.8253 57.3356 40.1286C61.2913 38.432 65.5021 37.5837 69.9681 37.5837C74.4341 37.5837 78.6237 38.432 82.5368 40.1286C86.4924 41.8253 89.9589 44.1581 92.9362 47.1272C95.9136 50.0964 98.2316 53.532 99.8904 57.4343C101.592 61.3366 102.442 65.5357 102.442 70.0318C102.442 74.4855 101.592 78.6846 99.8904 82.6293C98.2316 86.5316 95.9136 89.9673 92.9362 92.9364C89.9589 95.9055 86.4924 98.2383 82.5368 99.935C78.6237 101.589 74.4341 102.416 69.9681 102.416Z" fill="#FFAA00"/>
<path d="M70.0322 113.814C71.6546 113.815 73.0542 114.419 74.2061 115.607L74.4238 115.826C75.4804 116.935 76.0184 118.261 76.0186 119.785V133.528C76.0186 135.154 75.4067 136.556 74.2061 137.707L74.2051 137.706C73.0533 138.894 71.6544 139.5 70.0322 139.5C68.4698 139.5 67.1018 138.968 65.9502 137.917L65.7236 137.7C64.5674 136.547 63.9814 135.147 63.9814 133.528V119.785C63.9816 118.166 64.5676 116.767 65.7236 115.614L65.9502 115.397C67.1018 114.347 68.4697 113.814 70.0322 113.814ZM105.186 99.2441C106.737 99.2441 108.085 99.7316 109.203 100.708L109.424 100.91L109.431 100.917L119.249 110.708L119.461 110.921C120.485 112.001 120.998 113.333 120.998 114.887C120.998 116.544 120.416 117.983 119.263 119.179L119.249 119.192C118.092 120.3 116.673 120.854 115.024 120.857L115.025 120.858C113.367 120.904 111.938 120.37 110.773 119.256L110.765 119.248L100.939 109.386V109.385C99.7798 108.27 99.1992 106.869 99.1992 105.216C99.1992 103.559 99.7817 102.119 100.935 100.924L100.948 100.91C102.109 99.7993 103.531 99.2442 105.186 99.2441ZM34.75 99.2441C36.337 99.2441 37.7066 99.7297 38.8301 100.708L39.0518 100.91L39.0625 100.92L39.0732 100.932C40.1809 102.128 40.7373 103.565 40.7373 105.216C40.7373 106.873 40.1541 108.278 38.9883 109.395L38.9873 109.394L29.2354 119.185L29.2266 119.192C28.0626 120.307 26.6161 120.837 24.9248 120.794V120.795C23.2706 120.795 21.8479 120.24 20.6875 119.129L20.666 119.107C19.5583 117.911 19.002 116.474 19.002 114.823C19.002 113.166 19.5852 111.761 20.751 110.645L30.5059 100.917L30.5127 100.91L30.7334 100.708C31.8519 99.7317 33.1993 99.2442 34.75 99.2441ZM69.9678 37.084C74.4981 37.084 78.7552 37.9445 82.7334 39.6689L83.4805 39.999C87.1844 41.6883 90.4547 43.947 93.2891 46.7734L93.8486 47.3438C96.6035 50.2247 98.7703 53.5228 100.349 57.2344L100.663 57.9824C102.184 61.7381 102.942 65.7565 102.942 70.0322C102.942 74.5503 102.078 78.8156 100.35 82.8242L100.351 82.8252C98.7721 86.5385 96.6045 89.8377 93.8486 92.7197L93.2891 93.29C90.4547 96.1165 87.1844 98.3752 83.4805 100.064L82.7334 100.395L82.7314 100.396C78.7536 102.077 74.4972 102.916 69.9678 102.916C65.4385 102.916 61.1617 102.077 57.1426 100.396L57.1367 100.394C53.415 98.7799 50.108 96.5977 47.2188 93.8477L46.6465 93.29C43.6243 90.2761 41.2495 86.788 39.5234 82.8291L39.5215 82.8232C37.8359 78.8148 36.9942 74.5495 36.9941 70.0322C36.9941 65.473 37.8348 61.2061 39.5215 57.2383L39.5234 57.2344L39.8545 56.498C41.5487 52.8416 43.8131 49.5991 46.6465 46.7734L47.2188 46.2158C50.108 43.4657 53.415 41.2836 57.1367 39.6699L57.1387 39.6689L57.8955 39.3555C61.6945 37.8402 65.72 37.084 69.9678 37.084ZM20.2041 63.9961C21.8711 63.9961 23.2986 64.6033 24.4561 65.8037H24.4551C25.6497 66.9557 26.2549 68.3749 26.2549 70.0322C26.2548 71.5554 25.7173 72.8978 24.666 74.041L24.4492 74.2666C23.2902 75.4225 21.8647 76.0039 20.2041 76.0039H6.4873C4.86553 76.0039 3.44497 75.4202 2.24902 74.2734L2.23535 74.2598C1.08545 73.0672 0.500101 71.6506 0.5 70.0322C0.5 68.3749 1.08302 66.9528 2.24219 65.7969L2.46875 65.5801C3.61516 64.5318 4.96103 63.9961 6.4873 63.9961H20.2041ZM133.514 63.9961C135.136 63.9962 136.536 64.602 137.688 65.79L137.906 66.0098C138.965 67.1234 139.5 68.4726 139.5 70.0322C139.5 71.5555 138.963 72.8977 137.911 74.041L137.694 74.2666C136.538 75.4194 135.136 76.0038 133.514 76.0039H119.796C118.136 76.0039 116.693 75.423 115.494 74.2734L115.48 74.2598C114.331 73.0672 113.745 71.6505 113.745 70.0322C113.745 68.375 114.328 66.9528 115.487 65.7969L115.715 65.5801C116.866 64.5295 118.234 63.9961 119.796 63.9961H133.514ZM115.011 19.1416C116.671 19.1416 118.097 19.7222 119.256 20.8779C120.418 22.0367 120.998 23.4813 120.998 25.1768C120.998 26.7305 120.486 28.0776 119.467 29.1924L119.256 29.4121L109.494 39.1465C108.335 40.3452 106.887 40.9463 105.186 40.9463H105.172C103.62 40.9033 102.275 40.3721 101.161 39.3564L100.941 39.1465C99.7822 37.9905 99.1992 36.5684 99.1992 34.9111C99.1993 33.254 99.7823 31.8326 100.941 30.6768L110.767 20.8779L110.986 20.668C112.104 19.6518 113.454 19.1417 115.011 19.1416ZM25.0527 19.2051L25.3672 19.2119C26.8191 19.2724 28.0667 19.7566 29.083 20.6748L29.2979 20.8779L29.2988 20.8799L39.0605 30.6777H39.0596C40.1825 31.7981 40.7372 33.2225 40.7373 34.9111C40.7373 36.6033 40.1581 38.0275 38.9941 39.1455L38.9951 39.1465C37.836 40.3024 36.4107 40.8828 34.75 40.8828C33.0896 40.8827 31.6649 40.3022 30.5059 39.1465L30.5039 39.1455L20.7432 29.3477V29.3467C19.6232 28.2291 19.0654 26.8272 19.0654 25.1768C19.0655 23.4813 19.6457 22.0367 20.8076 20.8779C21.967 19.7218 23.3935 19.1624 25.0527 19.2051ZM70.0322 0.5C71.6542 0.500082 73.0534 1.10542 74.2051 2.29297H74.2061C75.4099 3.44728 76.0185 4.87147 76.0186 6.53516V20.2148C76.0184 21.7738 75.484 23.1378 74.4307 24.2861L74.2129 24.5127C73.0568 25.6656 71.6544 26.2499 70.0322 26.25C68.372 26.25 66.9294 25.6691 65.7305 24.5195L65.7168 24.5059C64.564 23.3103 63.9816 21.8715 63.9814 20.2148V6.53516C63.9815 4.87789 64.5645 3.45574 65.7236 2.2998L65.9502 2.08301C67.1018 1.03235 68.4698 0.5 70.0322 0.5Z" stroke="black" stroke-opacity="0.1"/>
</svg>
