<svg width="170" height="111" viewBox="0 0 170 111" fill="none" xmlns="http://www.w3.org/2000/svg">
<path d="M57.4464 95.9851C51.4696 95.9851 46.2116 94.7747 41.6723 92.3537C37.1329 89.9327 33.5771 86.6039 31.0049 82.3672C28.4326 78.1305 27.1464 73.2697 27.1464 67.7847C27.1464 63.6236 27.9597 59.7652 29.5863 56.2094C31.2129 52.6536 33.5204 49.5707 36.5088 46.9606C39.4972 44.3504 43.034 42.4023 47.1194 41.1162C47.8003 35.2907 49.4269 29.9381 51.9992 25.0584C54.6093 20.1786 57.9381 15.9419 61.9857 12.3483C66.0332 8.75466 70.6104 5.97433 75.7171 4.0073C80.8238 2.00243 86.2521 1 92.0019 1C100.967 1 108.854 3.08052 115.663 7.24156C122.51 11.4026 127.9 17.3226 131.834 25.0016C137.168 25.0016 142.086 25.8906 146.587 27.6685C151.126 29.4464 155.061 31.9619 158.389 35.2151C161.756 38.4304 164.366 42.1943 166.22 46.5066C168.073 50.819 169 55.5096 169 60.5785C169 65.5339 168.073 70.1678 166.22 74.4801C164.404 78.7925 161.851 82.5563 158.56 85.7717C155.269 88.9492 151.429 91.4458 147.041 93.2616C142.691 95.0773 137.962 95.9851 132.856 95.9851H57.4464Z" fill="#BCBCBC"/>
<path d="M31.2999 109.543C25.3232 109.543 20.0651 108.332 15.5258 105.911C10.9865 103.49 7.43069 100.161 4.85842 95.9246C2.28614 91.6879 1 86.8271 1 81.3421C1 77.181 1.81329 73.3226 3.43988 69.7668C5.06647 66.211 7.37395 63.1281 10.3623 60.518C13.3507 57.9079 16.8876 55.9597 20.973 54.6736C21.6539 48.8482 23.2805 43.4955 25.8527 38.6158C28.4628 33.736 31.7917 29.4993 35.8392 25.9057C39.8868 22.3121 44.4639 19.5317 49.5707 17.5647C54.6774 15.5598 60.1056 14.5574 65.8554 14.5574C74.8206 14.5574 82.7076 16.6379 89.5166 20.799C96.3634 24.96 101.754 30.88 105.688 38.559C111.022 38.559 115.939 39.448 120.441 41.2259C124.98 43.0038 128.914 45.5193 132.243 48.7725C135.61 51.9878 138.22 55.7517 140.073 60.064C141.927 64.3764 142.854 69.067 142.854 74.1359C142.854 79.0913 141.927 83.7252 140.073 88.0376C138.258 92.3499 135.704 96.1138 132.413 99.3291C129.122 102.507 125.283 105.003 120.895 106.819C116.544 108.635 111.816 109.543 106.709 109.543H31.2999Z" fill="#727272"/>
<path d="M92.002 0.5C101.047 0.500009 109.027 2.59979 115.924 6.81445H115.923C122.774 10.9783 128.178 16.8808 132.139 24.5049C137.412 24.5381 142.291 25.434 146.771 27.2031H146.77C151.368 29.0043 155.36 31.5552 158.739 34.8574H158.738C162.152 38.1188 164.8 41.9376 166.679 46.3096L167.021 47.1348C168.675 51.2849 169.5 55.7676 169.5 60.5781C169.5 65.596 168.56 70.2959 166.68 74.6729L166.681 74.6738C164.84 79.0464 162.249 82.8663 158.909 86.1289L158.907 86.1318C155.569 89.3546 151.676 91.8849 147.232 93.7236L147.231 93.7227C143.647 95.2186 139.814 96.1068 135.733 96.3877C134.819 97.5438 133.83 98.644 132.763 99.6865L132.761 99.6885C129.423 102.911 125.53 105.442 121.086 107.281L121.085 107.28C116.669 109.123 111.876 110.043 106.709 110.043H31.2998C25.2544 110.043 19.9127 108.818 15.29 106.353C10.819 103.968 7.27911 100.711 4.67969 96.5859L4.43066 96.1846C1.80593 91.8615 0.5 86.9083 0.5 81.3418C0.500036 77.1138 1.32705 73.1837 2.98535 69.5586L3.30371 68.8857C4.93801 65.5472 7.18231 62.6317 10.0332 60.1416L10.6104 59.6504C13.4525 57.3007 16.757 55.5177 20.5166 54.2959C21.2258 48.5368 22.8547 43.2308 25.4102 38.3828L25.4121 38.3799L25.915 37.4629C28.4727 32.9165 31.6701 28.9387 35.5068 25.5322L36.2812 24.8604C39.9212 21.7706 43.9711 19.3103 48.4297 17.4805L49.3906 17.0977C52.471 15.8886 55.6667 15.0435 58.9756 14.5557C59.831 13.6622 60.7227 12.8009 61.6533 11.9746L62.4277 11.3027C66.3274 7.99253 70.698 5.40503 75.5371 3.54102C80.704 1.51291 86.1937 0.5 92.002 0.5Z" stroke="black" stroke-opacity="0.2"/>
</svg>
