<svg width="150" height="101" viewBox="0 0 150 101" fill="none" xmlns="http://www.w3.org/2000/svg">
<path d="M32.6128 100C26.3771 100 20.8912 98.7383 16.1552 96.215C11.4192 93.6917 7.70933 90.2222 5.0256 85.8064C2.34187 81.3907 1 76.3244 1 70.6075C1 66.2706 1.84853 62.2491 3.5456 58.543C5.24267 54.8369 7.65013 51.6237 10.768 48.9032C13.8859 46.1828 17.576 44.1523 21.8384 42.8118C22.5488 36.7401 24.2459 31.1613 26.9296 26.0753C29.6528 20.9892 33.1259 16.5735 37.3488 12.828C41.5717 9.08244 46.3472 6.18459 51.6752 4.13441C57.0032 2.0448 62.6667 1 68.6656 1C78.0192 1 86.248 3.16846 93.352 7.50538C100.495 11.8423 106.119 18.0125 110.224 26.0161C115.789 26.0161 120.919 26.9427 125.616 28.7957C130.352 30.6487 134.457 33.2706 137.93 36.6613C141.442 40.0125 144.165 43.9355 146.099 48.4301C148.033 52.9247 149 57.8136 149 63.0968C149 68.2616 148.033 73.0914 146.099 77.586C144.205 82.0806 141.541 86.0036 138.107 89.3548C134.674 92.6667 130.668 95.2688 126.09 97.1613C121.551 99.0538 116.618 100 111.29 100H32.6128Z" fill="#F6F6F6"/>
<path d="M68.666 0.5C78.0989 0.500065 86.419 2.68837 93.6104 7.07812H93.6113C100.759 11.4178 106.397 17.5706 110.528 25.5195C116.032 25.5528 121.123 26.4863 125.797 28.3301H125.798C130.593 30.2063 134.756 32.864 138.279 36.3037H138.278C141.838 39.701 144.599 43.6782 146.559 48.2324L146.915 49.0928C148.64 53.4157 149.5 58.0853 149.5 63.0967C149.5 68.3255 148.521 73.2228 146.559 77.7832C144.759 82.0521 142.273 85.815 139.101 89.0684L138.454 89.7148C134.974 93.0716 130.915 95.7066 126.281 97.6221L126.282 97.623C121.678 99.5429 116.678 100.5 111.29 100.5H32.6133C26.5059 100.5 21.0881 99.3028 16.374 96.8936L15.9199 96.6562C11.2583 94.1725 7.56749 90.7811 4.85742 86.4844L4.59863 86.0664C1.86238 81.5642 0.5 76.4058 0.5 70.6074C0.500013 66.2034 1.36202 62.1104 3.09082 58.335L3.42285 57.6338C5.12677 54.1565 7.46703 51.1199 10.4395 48.5264L11.041 48.0156C14.0072 45.5658 17.4565 43.7074 21.3818 42.4346C22.1206 36.4289 23.8202 30.8963 26.4873 25.8418L26.4893 25.8389L27.0137 24.8838C29.6811 20.1472 33.0155 16.003 37.0166 12.4541L37.8242 11.7539C41.8902 8.30611 46.4469 5.61076 51.4922 3.66895L52.5068 3.28516C57.5985 1.42768 62.9862 0.5 68.666 0.5Z" stroke="black" stroke-opacity="0.2"/>
</svg>
