<svg width="12" height="12" viewBox="0 0 12 12" fill="none" xmlns="http://www.w3.org/2000/svg">
<path d="M2.04671 12C1.36448 12 0.851711 11.8305 0.508419 11.4916C0.169473 11.157 0 10.6551 0 9.98588V2.02064C0 1.34709 0.169473 0.84302 0.508419 0.508419C0.851711 0.169473 1.36448 0 2.04671 0H9.95329C10.6355 0 11.1461 0.169473 11.4851 0.508419C11.8284 0.847366 12 1.35144 12 2.02064V9.98588C12 10.6551 11.8284 11.157 11.4851 11.4916C11.1461 11.8305 10.6355 12 9.95329 12H2.04671ZM6.00978 2.60728C5.94025 2.60728 5.87507 2.62032 5.81423 2.64639C5.7534 2.66812 5.68821 2.71374 5.61869 2.78327L3.4025 4.92124C3.35035 4.96904 3.31124 5.02336 3.28517 5.08419C3.2591 5.14068 3.24606 5.20587 3.24606 5.27974C3.24606 5.41445 3.29169 5.52743 3.38294 5.61869C3.4742 5.70559 3.58935 5.74905 3.72841 5.74905C3.88485 5.74905 4.00869 5.69473 4.09995 5.58609L5.1233 4.49756L5.51439 4.08691L5.46877 5.09071V8.86475C5.46877 9.00815 5.52091 9.13199 5.6252 9.23628C5.73384 9.33623 5.86203 9.3862 6.00978 9.3862C6.15752 9.3862 6.28354 9.33623 6.38783 9.23628C6.49212 9.13199 6.54427 9.00815 6.54427 8.86475V5.09071L6.50516 4.08691L6.89625 4.49756L7.91961 5.58609C8.00652 5.69473 8.12819 5.74905 8.28463 5.74905C8.42368 5.74905 8.53884 5.70559 8.63009 5.61869C8.72569 5.52743 8.77349 5.41445 8.77349 5.27974C8.77349 5.20587 8.75828 5.14068 8.72787 5.08419C8.70179 5.02336 8.66268 4.96904 8.61054 4.92124L6.40087 2.78327C6.33134 2.71374 6.26616 2.66812 6.20532 2.64639C6.14449 2.62032 6.0793 2.60728 6.00978 2.60728Z" fill="#CB0404"/>
</svg>
