<svg width="175" height="170" viewBox="0 0 175 170" fill="none" xmlns="http://www.w3.org/2000/svg">
<path d="M24.9339 122.858C19.9972 122.858 15.6584 121.895 11.9174 119.968C8.17631 118.002 5.24518 115.285 3.12397 111.816C1.04132 108.347 0 104.319 0 99.7322C0 94.2975 1.5427 89.5566 4.6281 85.5095C7.75207 81.4239 11.8981 78.668 17.0661 77.2419C17.4904 72.2697 18.7631 67.6637 20.8843 63.4239C23.0441 59.1841 25.8595 55.4839 29.3306 52.3233C32.8402 49.1627 36.8127 46.7151 41.2479 44.9807C45.6832 43.2076 50.4077 42.3211 55.4215 42.3211C60.9752 42.3211 65.9504 43.2462 70.3471 45.0963C74.7824 46.9078 78.6198 49.3939 81.8595 52.5545C85.1377 55.6766 87.8182 59.2033 89.9008 63.1348C95.9559 63.1348 101.355 64.4453 106.099 67.0663C110.843 69.6873 114.584 73.2526 117.322 77.7622C120.061 82.2718 121.43 87.4174 121.43 93.199C121.43 98.8264 120.118 103.876 117.496 108.347C114.912 112.818 111.402 116.364 106.967 118.985C102.532 121.567 97.5179 122.858 91.9256 122.858H24.9339ZM129.876 86.2033C128.989 80.3446 126.964 75.1605 123.802 70.6509C120.639 66.1027 116.609 62.4796 111.711 59.7815C106.813 57.0449 101.298 55.4646 95.1653 55.0406C94.2397 53.3061 93.2176 51.7066 92.0992 50.2419C91.0193 48.7387 89.843 47.3318 88.5703 46.0213C90.9614 41.9742 94.3554 38.6595 98.7521 36.077C103.187 33.4561 108.085 32.1456 113.446 32.1456C118.884 32.1456 123.821 33.4753 128.256 36.1348C132.73 38.7944 136.278 42.3597 138.901 46.8308C141.562 51.2633 142.893 56.1776 142.893 61.5738C142.893 66.6616 141.716 71.3639 139.364 75.6808C137.011 79.9592 133.848 83.4667 129.876 86.2033ZM77.6942 34.3426L69.8843 26.5374C68.7273 25.3811 68.1295 23.9743 68.0909 22.3169C68.0909 20.6595 68.6694 19.2526 69.8264 18.0963C70.9835 16.94 72.3912 16.3619 74.0496 16.3619C75.7466 16.3619 77.1543 16.94 78.2727 18.0963L86.0826 26.0171C87.2397 27.1734 87.8182 28.5803 87.8182 30.2376C87.8568 31.8565 87.2975 33.2441 86.1405 34.4004C85.022 35.5567 83.6143 36.1348 81.9174 36.1348C80.2589 36.1348 78.8512 35.5374 77.6942 34.3426ZM113.388 23.0685C111.769 23.0685 110.361 22.4903 109.165 21.334C108.008 20.1392 107.43 18.713 107.43 17.0556V6.01284C107.43 4.35545 108.008 2.9486 109.165 1.79229C110.361 0.597429 111.769 0 113.388 0C115.047 0 116.455 0.597429 117.612 1.79229C118.769 2.9486 119.347 4.35545 119.347 6.01284V17.0556C119.347 18.713 118.769 20.1392 117.612 21.334C116.455 22.4903 115.047 23.0685 113.388 23.0685ZM140.694 34.4582C139.537 33.3019 138.959 31.895 138.959 30.2376C138.959 28.5417 139.537 27.1349 140.694 26.0171L148.62 18.212C149.777 17.0171 151.165 16.4197 152.785 16.4197C154.444 16.4197 155.851 16.9786 157.008 18.0963C158.165 19.2526 158.744 20.6788 158.744 22.3747C158.744 24.0321 158.165 25.4389 157.008 26.5952L149.141 34.4004C147.983 35.5567 146.556 36.1541 144.859 36.1927C143.201 36.1927 141.813 35.6145 140.694 34.4582ZM157.876 67.5288C156.256 67.5288 154.848 66.9699 153.653 65.8521C152.457 64.6958 151.859 63.289 151.859 61.6316C151.859 60.0128 152.457 58.6059 153.653 57.411C154.848 56.2162 156.256 55.6188 157.876 55.6188H168.983C170.642 55.6188 172.05 56.2162 173.207 57.411C174.402 58.6059 175 60.0128 175 61.6316C175 63.289 174.402 64.6958 173.207 65.8521C172.05 66.9699 170.642 67.5288 168.983 67.5288H157.876ZM148.562 105.167L140.694 97.3039C139.537 96.1861 138.939 94.7986 138.901 93.1412C138.901 91.4453 139.479 90.0384 140.636 88.9206C141.793 87.7643 143.201 87.1862 144.859 87.1862C146.556 87.1862 147.964 87.7643 149.083 88.9206L156.95 96.7836C158.069 97.9399 158.647 99.3467 158.686 101.004C158.725 102.662 158.165 104.068 157.008 105.225C155.851 106.342 154.444 106.901 152.785 106.901C151.127 106.901 149.719 106.323 148.562 105.167ZM26.6116 151.535C25.9945 152.537 25.1267 153.212 24.0083 153.559C22.8898 153.944 21.8099 153.828 20.7686 153.212C19.6887 152.595 19.0138 151.728 18.7438 150.61C18.5124 149.492 18.686 148.432 19.2645 147.43L26.6116 134.653C27.2672 133.574 28.135 132.861 29.2149 132.514C30.2948 132.205 31.3747 132.36 32.4545 132.976C33.4959 133.593 34.1515 134.46 34.4215 135.578C34.6915 136.734 34.5179 137.833 33.9008 138.873L26.6116 151.535ZM44.8347 167.781C44.2176 168.783 43.3499 169.458 42.2314 169.805C41.1515 170.152 40.0716 170.036 38.9917 169.458C37.9118 168.803 37.2369 167.916 36.9669 166.798C36.7355 165.719 36.9091 164.659 37.4876 163.619L44.8347 150.899C45.4904 149.82 46.3581 149.107 47.438 148.76C48.5179 148.452 49.5978 148.606 50.6777 149.222C51.719 149.839 52.3747 150.706 52.6446 151.824C52.9146 152.942 52.741 154.021 52.124 155.062L44.8347 167.781ZM72.6612 151.477C72.0441 152.518 71.1763 153.212 70.0579 153.559C68.9394 153.906 67.8595 153.771 66.8182 153.154C65.7383 152.537 65.0634 151.67 64.7934 150.552C64.562 149.434 64.7355 148.375 65.314 147.372L72.6612 134.653C73.3168 133.535 74.1846 132.803 75.2645 132.456C76.3444 132.148 77.405 132.302 78.4463 132.918C79.5262 133.574 80.2011 134.46 80.4711 135.578C80.741 136.696 80.5868 137.775 80.0083 138.816L72.6612 151.477ZM90.8264 167.724C90.2479 168.764 89.3994 169.458 88.281 169.805C87.1625 170.152 86.0826 170.017 85.0413 169.4C83.9614 168.783 83.2865 167.916 83.0165 166.798C82.7851 165.681 82.9587 164.621 83.5372 163.619L90.8843 150.899C91.5399 149.781 92.4077 149.049 93.4876 148.702C94.5675 148.394 95.6474 148.548 96.7273 149.165C97.8072 149.781 98.4628 150.649 98.6942 151.766C98.9642 152.923 98.8099 154.021 98.2314 155.062L90.8264 167.724Z" fill="#727272"/>
</svg>
