<svg width="12" height="12" viewBox="0 0 12 12" fill="none" xmlns="http://www.w3.org/2000/svg">
<path d="M11.2274 0.779932C11.5601 1.10832 11.7721 1.50057 11.8632 1.95667C11.9544 2.41277 12 2.92816 12 3.50285V8.49715C12 9.07184 11.9544 9.58723 11.8632 10.0433C11.7721 10.4994 11.5601 10.8917 11.2274 11.2201C10.8946 11.553 10.498 11.7651 10.0376 11.8563C9.58177 11.9521 9.06895 12 8.49915 12H3.50769C2.93789 12 2.42279 11.9521 1.96239 11.8563C1.50199 11.7651 1.10541 11.553 0.77265 11.2201C0.439886 10.8917 0.22792 10.4994 0.136752 10.0433C0.045584 9.58723 0 9.07184 0 8.49715V3.48917C0 2.9236 0.045584 2.41277 0.136752 1.95667C0.232479 1.50057 0.444444 1.10832 0.77265 0.779932C1.10541 0.451539 1.49972 0.239453 1.95556 0.143672C2.41595 0.0478905 2.9265 0 3.48718 0H8.49915C9.06895 0 9.58177 0.0478905 10.0376 0.143672C10.498 0.234892 10.8946 0.446978 11.2274 0.779932ZM5.98974 9.3797C6.07179 9.3797 6.14473 9.36602 6.20855 9.33865C6.27692 9.31129 6.34986 9.26112 6.42735 9.18814L8.61539 7.06727C8.67464 7.01254 8.71795 6.95553 8.7453 6.89624C8.77265 6.83694 8.78632 6.76853 8.78632 6.69099C8.78632 6.5496 8.73618 6.43101 8.6359 6.33523C8.53561 6.23945 8.41254 6.19156 8.26667 6.19156C8.10256 6.19156 7.97265 6.24857 7.87692 6.3626L6.89915 7.39567L6.52991 7.81984L6.57094 6.82782V3.18814C6.57094 3.03307 6.51396 2.9008 6.4 2.79133C6.28604 2.67731 6.14929 2.6203 5.98974 2.6203C5.8302 2.6203 5.69345 2.67731 5.57949 2.79133C5.46553 2.9008 5.40855 3.03307 5.40855 3.18814V6.82782L5.45641 7.81984L5.08718 7.39567L4.1094 6.3626C4.01368 6.24857 3.88148 6.19156 3.71282 6.19156C3.57151 6.19156 3.45071 6.23945 3.35043 6.33523C3.25014 6.43101 3.2 6.5496 3.2 6.69099C3.2 6.76853 3.21368 6.83694 3.24103 6.89624C3.27293 6.95553 3.31396 7.01254 3.3641 7.06727L5.56581 9.18814C5.63875 9.26112 5.7094 9.31129 5.77778 9.33865C5.84615 9.36602 5.91681 9.3797 5.98974 9.3797Z" fill="#1B3C73"/>
</svg>
