<svg width="31" height="31" viewBox="0 0 31 31" fill="none" xmlns="http://www.w3.org/2000/svg">
<circle cx="15.5" cy="15.5" r="15.5" fill="#727272"/>
<path d="M9.03559 8.168C10.3316 8.168 11.4116 9.23 11.4116 10.562C11.4116 11.858 10.3316 12.902 9.03559 12.902C7.70359 12.902 6.65959 11.858 6.65959 10.562C6.65959 9.23 7.70359 8.168 9.03559 8.168ZM7.97359 10.544C7.97359 11.12 8.45959 11.588 9.03559 11.588C9.61159 11.588 10.0796 11.12 10.0796 10.544C10.0796 9.968 9.61159 9.5 9.03559 9.5C8.45959 9.5 7.97359 9.968 7.97359 10.544ZM23.0975 9.86V11.534H16.5995V15.656H22.1075V17.312H16.5995V23.144H14.6915V9.86H23.0975Z" fill="white"/>
</svg>
