<svg width="144" height="152" viewBox="0 0 144 152" fill="none" xmlns="http://www.w3.org/2000/svg">
<path fill-rule="evenodd" clip-rule="evenodd" d="M64.8357 129.74L66.5845 125.485L66.2254 129.74H64.8357ZM73.9448 118.532H75.4664L73.5858 122.128L73.9448 118.532Z" fill="#FFAA00"/>
<path d="M90.4606 119.551C90.2611 118.872 89.7026 118.532 88.7851 118.532H75.4664L73.5858 122.128L73.9448 118.532H75.4664L80.8264 108.284C81.1854 107.604 81.2453 107.045 81.0059 106.605C80.7665 106.126 80.3078 105.886 79.6296 105.886H63.7122C62.8744 105.886 62.2561 106.046 61.8571 106.366C61.4582 106.685 61.1191 107.165 60.8399 107.804L52.2828 127.343C51.9636 128.102 51.9437 128.681 52.2229 129.081C52.5022 129.52 53.0407 129.74 53.8386 129.74H64.8357L66.5845 125.485L66.2254 129.74H64.8357L56.8306 149.219C56.4716 150.098 56.6112 150.658 57.2495 150.897C57.8479 151.137 58.4662 150.957 59.1045 150.358L89.7425 121.589C90.4207 120.95 90.6601 120.271 90.4606 119.551Z" fill="#FFAA00"/>
<path d="M31.5782 96.5962C25.3149 96.5962 19.8895 95.3376 15.3017 92.8203C10.7539 90.2631 7.22335 86.8268 4.71007 82.5115C2.23669 78.1962 1 73.3814 1 68.0672C1 63.592 1.8577 59.5564 3.57311 55.9603C5.32842 52.3243 7.70207 49.2476 10.6941 46.7304C13.6861 44.1731 17.077 42.2752 20.8668 41.0365C21.545 35.4426 23.1607 30.2283 25.7139 25.3935C28.267 20.5188 31.5582 16.2634 35.5874 12.6274C39.6167 8.99132 44.2044 6.1544 49.3506 4.11662C54.5367 2.03887 60.0819 1 65.9861 1C72.5685 1 78.4128 2.05885 83.5192 4.17655C88.6255 6.2543 93.0537 9.11119 96.8036 12.7472C100.593 16.3833 103.665 20.5188 106.019 25.1538C111.285 25.1538 116.152 26.0528 120.62 27.8508C125.128 29.6489 129.057 32.1662 132.408 35.4026C135.759 38.6391 138.352 42.435 140.188 46.7903C142.063 51.1056 143 55.8005 143 60.875C143 65.8296 142.082 70.4646 140.247 74.7799C138.452 79.0952 135.899 82.8911 132.588 86.1675C129.317 89.444 125.467 92.0012 121.039 93.8392C116.611 95.6772 111.803 96.5962 106.617 96.5962H31.5782Z" fill="#727272"/>
<path d="M79.6299 105.386C80.4312 105.386 81.0943 105.681 81.4443 106.366H81.4453C81.8008 107.019 81.6611 107.771 81.2686 108.515L81.2695 108.516L76.292 118.032H88.7852C89.3003 118.032 89.7693 118.127 90.1523 118.36C90.4975 118.57 90.7411 118.873 90.8848 119.246L90.9404 119.41L90.9424 119.418L90.9844 119.594C91.1479 120.411 90.8548 121.162 90.2256 121.814L90.0859 121.953H90.085L59.4463 150.723C58.7288 151.396 57.914 151.696 57.0732 151.364V151.365C57.0709 151.364 57.0687 151.363 57.0664 151.362C57.0655 151.362 57.0644 151.362 57.0635 151.361V151.36C56.6279 151.194 56.297 150.885 56.1807 150.419C56.0733 149.989 56.1722 149.51 56.3682 149.03V149.029L64.0889 130.24H53.8389C52.9663 130.24 52.2137 129.999 51.8008 129.349V129.348C51.3852 128.734 51.4867 127.948 51.8223 127.149L51.8252 127.143L60.3818 107.604L60.498 107.353C60.7789 106.78 61.1241 106.313 61.5449 105.976C62.0736 105.552 62.8278 105.386 63.7119 105.386H79.6299ZM65.9863 0.5C72.6221 0.500025 78.5335 1.56767 83.7109 3.71484H83.71C88.8704 5.81495 93.3519 8.70509 97.1494 12.3867L97.8594 13.0811C101.293 16.5127 104.113 20.3724 106.323 24.6562C111.531 24.6903 116.36 25.5975 120.807 27.3867H120.806C125.371 29.2078 129.356 31.7596 132.756 35.043L133.384 35.665C136.48 38.8093 138.902 42.4522 140.646 46.5908L140.992 47.417C142.666 51.5707 143.5 56.0584 143.5 60.875C143.5 65.8913 142.57 70.5913 140.708 74.9707L140.709 74.9717C138.889 79.3471 136.298 83.1968 132.94 86.5195L132.941 86.5205C129.622 89.8451 125.717 92.4385 121.23 94.3008C116.737 96.166 111.864 97.0967 106.617 97.0967H31.5781C25.2475 97.0967 19.7361 95.8236 15.0615 93.2588L15.0566 93.2559C10.4349 90.657 6.83844 87.1584 4.27832 82.7627L4.27637 82.7598C1.75676 78.3637 0.500031 73.4625 0.5 68.0674C0.5 63.527 1.37084 59.4163 3.12207 55.7451L3.12305 55.7432L3.46484 55.0566C5.09586 51.8828 7.21059 49.141 9.80859 46.835L10.3721 46.3477C13.3343 43.8165 16.6822 41.9227 20.4111 40.6631C21.1182 35.1289 22.7368 29.96 25.2715 25.1602C27.8516 20.2343 31.1795 15.9318 35.2529 12.2559C39.0727 8.80891 43.3885 6.07222 48.1982 4.04688L49.167 3.65137C54.4149 1.54925 60.023 0.5 65.9863 0.5Z" stroke="black" stroke-opacity="0.1"/>
</svg>
