<svg width="31" height="31" viewBox="0 0 31 31" fill="none" xmlns="http://www.w3.org/2000/svg">
<circle cx="15.5" cy="15.5" r="15.5" fill="#727272"/>
<path d="M8.45525 8.816C9.60725 8.816 10.5673 9.76 10.5673 10.944C10.5673 12.096 9.60725 13.024 8.45525 13.024C7.27125 13.024 6.34325 12.096 6.34325 10.944C6.34325 9.76 7.27125 8.816 8.45525 8.816ZM7.51125 10.928C7.51125 11.44 7.94325 11.856 8.45525 11.856C8.96725 11.856 9.38325 11.44 9.38325 10.928C9.38325 10.416 8.96725 10 8.45525 10C7.94325 10 7.51125 10.416 7.51125 10.928ZM19.1788 22.256C15.7548 22.256 13.3548 19.76 13.3548 16.224C13.3548 12.672 15.7548 10.192 19.1788 10.192C20.7948 10.192 22.2348 10.88 23.2908 11.952L22.1708 13.056C21.4668 12.224 20.3468 11.68 19.1628 11.68C16.7148 11.68 15.0668 13.504 15.0668 16.224C15.0668 18.944 16.7148 20.768 19.1628 20.768C20.4268 20.768 21.4348 20.192 22.1068 19.424L23.2908 20.496C22.2348 21.568 20.8748 22.272 19.1788 22.256Z" fill="white"/>
</svg>
