<svg width="124" height="145" viewBox="0 0 124 145" fill="none" xmlns="http://www.w3.org/2000/svg">
<path d="M61.9842 144C65.0533 144 66.8217 141.869 66.8217 138.746V123.439L78.6336 130.296C81.2065 131.812 83.8227 131.556 85.2991 128.945C86.4686 126.723 85.767 124.037 83.121 122.461L66.8217 113.008V103.993L65.4049 78.7006L86.2156 92.5615L93.7762 97.0385L93.6302 116.245C93.6302 119.367 95.4865 121.498 97.9567 121.498C100.938 121.498 102.414 119.292 102.414 116.245L102.487 102.127L115.559 109.931C118.147 111.522 120.763 110.891 122.21 108.295C123.657 105.609 122.882 102.863 120.324 101.346L107.31 93.7078L119.166 86.5205C121.666 85.0043 122.718 82.5581 121.33 80.0367C119.984 77.7251 117.267 77.1851 114.709 78.6859L98.569 88.4541L90.9652 83.9774L68.6915 72.5154L90.9802 61.0686L98.5407 56.5459L114.679 66.3141C117.237 67.8149 120.087 67.2596 121.345 65.0382C122.718 62.4419 121.652 59.9958 119.152 58.4643L107.325 51.3228L120.339 43.6841C122.985 42.0932 123.745 39.4816 122.225 36.705C120.836 34.1989 118.205 33.5685 115.574 35.0999L102.487 42.7692L102.399 28.6652C102.399 25.6927 100.923 23.5171 98 23.5325C95.4567 23.5325 93.6302 25.633 93.6302 28.6652L93.7612 47.9172L86.2156 52.4844L65.4049 66.3454L66.8217 40.9321V31.9922L83.121 22.5391C85.767 20.9632 86.4686 18.2767 85.2991 16.0553C83.8227 13.4439 81.2065 13.1883 78.6336 14.6295L66.8217 21.5614V6.25363C66.8217 3.13112 65.0533 1 61.9842 1C59.1491 1 57.2345 3.13112 57.2345 6.25363V21.5766L45.2171 14.6295C42.659 13.1883 40.2186 13.4439 38.6693 16.0553C37.4416 18.2767 38.2893 20.948 40.8325 22.4487L57.2345 32.0074V40.9321L58.5933 66.3454L37.8257 52.4844L30.207 47.9172L30.3531 28.6652C30.3531 25.633 28.5265 23.5325 26.0415 23.5325C23.1035 23.5325 21.5838 25.7079 21.5838 28.6652L21.4959 42.7692L8.49683 35.0999C5.909 33.6588 3.14682 34.1989 1.7583 36.705C0.238655 39.4816 1.07149 42.168 3.64435 43.6841L16.6584 51.3228L4.83169 58.4643C2.31683 59.9958 1.26497 62.2768 2.63862 65.0535C3.89601 67.2749 6.67301 67.8149 9.31896 66.3141L25.4425 56.6208L33.0032 61.0686L55.2918 72.5154L33.018 83.9774L25.4575 88.4695L9.27438 78.6859C6.7015 77.1851 3.98389 77.7251 2.79951 79.9465C1.35287 82.7386 2.31683 85.0043 4.81674 86.5205L16.6734 93.7078L3.6593 101.346C1.08637 102.878 0.296773 105.699 1.7583 108.28C3.2347 110.891 5.92396 111.372 8.49683 109.931L21.4959 102.277L21.569 116.245C21.569 119.292 23.1035 121.498 26.0265 121.498C28.4967 121.498 30.3531 119.367 30.3531 116.245L30.28 97.0385L37.8257 92.6364L58.5933 78.7006L57.2345 103.993V112.993L40.8325 122.476C38.2893 124.052 37.4416 126.723 38.6693 128.945C40.2186 131.556 42.659 131.812 45.2171 130.296L57.2345 123.423V138.746C57.2345 141.869 59.1491 144 61.9842 144Z" fill="#F6F6F6" stroke="#296EF9" stroke-opacity="0.4"/>
</svg>
