<svg width="20" height="21" viewBox="0 0 20 21" fill="none" xmlns="http://www.w3.org/2000/svg">
<path d="M13.9298 17.2348C13.4552 17.2348 13.08 17.0652 12.8042 16.726C12.5285 16.3806 12.3906 15.9119 12.3906 15.3198C12.3906 14.7339 12.5285 14.2683 12.8042 13.9229C13.0864 13.5714 13.4616 13.3956 13.9298 13.3956C14.3979 13.3956 14.7731 13.5714 15.0553 13.9229C15.3375 14.2683 15.4786 14.7339 15.4786 15.3198C15.4786 15.9119 15.3375 16.3806 15.0553 16.726C14.7731 17.0652 14.3979 17.2348 13.9298 17.2348ZM13.9298 16.3374C14.0965 16.3374 14.228 16.248 14.3242 16.0692C14.4268 15.8903 14.4781 15.6405 14.4781 15.3198C14.4781 15.0053 14.4268 14.7586 14.3242 14.5797C14.2216 14.3947 14.0901 14.3022 13.9298 14.3022C13.763 14.3022 13.6316 14.3947 13.5354 14.5797C13.4392 14.7586 13.3911 15.0053 13.3911 15.3198C13.3911 15.6405 13.4392 15.8903 13.5354 16.0692C13.6316 16.248 13.763 16.3374 13.9298 16.3374ZM13.67 20.8797C13.5354 20.8119 13.452 20.7101 13.4199 20.5744C13.3878 20.4449 13.4199 20.3123 13.5161 20.1767L18.0183 13.5991C18.1081 13.4819 18.2171 13.4079 18.3454 13.3771C18.4736 13.3401 18.5955 13.3524 18.7109 13.4141C18.8328 13.4819 18.9097 13.5868 18.9418 13.7286C18.9803 13.8643 18.9546 14 18.8648 14.1357L14.3723 20.7132C14.2889 20.8242 14.1799 20.8952 14.0452 20.926C13.9105 20.9568 13.7855 20.9414 13.67 20.8797ZM18.4608 20.9075C17.9926 20.9075 17.6174 20.7317 17.3353 20.3802C17.0595 20.0286 16.9216 19.5599 16.9216 18.974C16.9216 18.3881 17.0595 17.9225 17.3353 17.5771C17.6174 17.2317 17.9926 17.059 18.4608 17.059C18.929 17.059 19.3009 17.2317 19.5767 17.5771C19.8589 17.9225 20 18.3881 20 18.974C20 19.5599 19.8589 20.0286 19.5767 20.3802C19.3009 20.7317 18.929 20.9075 18.4608 20.9075ZM18.4608 19.9916C18.6275 19.9916 18.759 19.9022 18.8552 19.7233C18.9578 19.5445 19.0091 19.2947 19.0091 18.974C19.0091 18.6656 18.9578 18.4189 18.8552 18.2339C18.7526 18.0489 18.6211 17.9564 18.4608 17.9564C18.2941 17.9564 18.1594 18.0458 18.0568 18.2247C17.9606 18.4097 17.9125 18.6595 17.9125 18.974C17.9125 19.2947 17.9606 19.5445 18.0568 19.7233C18.1594 19.9022 18.2941 19.9916 18.4608 19.9916ZM8.74459 2.59031V0.638326C8.74459 0.459471 8.80552 0.30837 8.92737 0.185022C9.04922 0.061674 9.20314 0 9.38913 0C9.58153 0 9.73866 0.061674 9.86051 0.185022C9.98236 0.30837 10.0433 0.459471 10.0433 0.638326V2.59031H8.74459ZM0.625301 11.3881C0.439314 11.3881 0.2886 11.3264 0.17316 11.2031C0.0577201 11.0736 0 10.907 0 10.7035C0 9.9696 0.121853 9.20176 0.36556 8.4C0.609267 7.59824 0.974828 6.82115 1.46224 6.06872C1.95607 5.31013 2.57816 4.62863 3.32852 4.02423C4.07888 3.41982 4.95751 2.93877 5.96441 2.58106C6.9713 2.21718 8.11287 2.03524 9.38913 2.03524C10.6718 2.03524 11.8166 2.21718 12.8235 2.58106C13.8368 2.93877 14.7154 3.41982 15.4594 4.02423C16.2033 4.62863 16.8222 5.31013 17.316 6.06872C17.8098 6.82115 18.1786 7.59824 18.4223 8.4C18.666 9.20176 18.7879 9.9696 18.7879 10.7035C18.7879 10.907 18.7302 11.0736 18.6147 11.2031C18.4993 11.3264 18.3486 11.3881 18.1626 11.3881C18.0407 11.3881 17.9253 11.3542 17.8163 11.2863C17.7136 11.2123 17.6207 11.1137 17.5373 10.9903C17.2038 10.5093 16.8478 10.1608 16.4695 9.94493C16.0975 9.72291 15.6742 9.61189 15.1996 9.61189C14.7379 9.61189 14.337 9.71982 13.9971 9.93568C13.6636 10.1454 13.3558 10.4877 13.0736 10.9626C12.894 11.2463 12.6952 11.3881 12.4772 11.3881C12.2527 11.3881 12.0571 11.2493 11.8903 10.9718C11.6338 10.5339 11.2714 10.1916 10.8033 9.94493C10.3351 9.69824 9.86372 9.57489 9.38913 9.57489C8.92096 9.57489 8.45278 9.69824 7.98461 9.94493C7.51643 10.1916 7.15408 10.5339 6.89755 10.9718C6.73721 11.2493 6.54161 11.3881 6.31073 11.3881C6.09267 11.3881 5.89707 11.2463 5.72391 10.9626C5.43531 10.4877 5.12105 10.1454 4.78115 9.93568C4.44765 9.71982 4.04682 9.61189 3.57864 9.61189C3.11047 9.61189 2.68719 9.72291 2.3088 9.94493C1.93042 10.1608 1.57768 10.5093 1.2506 10.9903C1.16081 11.1137 1.06461 11.2123 0.962001 11.2863C0.859388 11.3542 0.747154 11.3881 0.625301 11.3881ZM9.38913 8.47401C9.97916 8.47401 10.5467 8.60352 11.0919 8.86256C11.637 9.11542 12.0763 9.45771 12.4098 9.88943C12.4483 9.92643 12.4836 9.92643 12.5156 9.88943C12.8363 9.42687 13.2179 9.0815 13.6604 8.8533C14.1093 8.61894 14.6224 8.50176 15.1996 8.50176C15.8025 8.50176 16.3508 8.62511 16.8446 8.87181C17.3449 9.1185 17.8002 9.49163 18.2107 9.99119L17.595 10.0374C17.5052 9.14934 17.2519 8.29515 16.835 7.47489C16.4181 6.64846 15.857 5.91145 15.1515 5.26388C14.446 4.61013 13.6091 4.09515 12.6407 3.71894C11.6723 3.33656 10.5884 3.14537 9.38913 3.14537C8.18984 3.14537 7.10598 3.33656 6.13757 3.71894C5.16915 4.10132 4.33221 4.61938 3.62674 5.27313C2.92128 5.92687 2.36011 6.66696 1.94324 7.49339C1.53279 8.31982 1.28587 9.18018 1.2025 10.0744L0.548341 10.0189C0.965208 9.51322 1.42376 9.13392 1.924 8.88106C2.42424 8.62819 2.97579 8.50176 3.57864 8.50176C4.15584 8.50176 4.6657 8.61894 5.10823 8.8533C5.55716 9.0815 5.94837 9.42687 6.28187 9.88943C6.30752 9.9326 6.33638 9.9326 6.36845 9.88943C6.70835 9.45771 7.15087 9.11542 7.69601 8.86256C8.24114 8.60352 8.80552 8.47401 9.38913 8.47401ZM7.14767 21C6.58971 21 6.08947 20.8767 5.64695 20.63C5.21084 20.3833 4.86452 20.0502 4.60798 19.6308C4.35786 19.2115 4.2328 18.7335 4.2328 18.1969C4.2328 17.9749 4.29052 17.796 4.40596 17.6604C4.5214 17.5308 4.67853 17.4661 4.87735 17.4661C5.08899 17.4661 5.25573 17.5339 5.37759 17.6696C5.49944 17.8053 5.56037 17.9811 5.56037 18.1969C5.56037 18.641 5.70787 19.0048 6.00289 19.2885C6.2979 19.5784 6.67949 19.7233 7.14767 19.7233C7.60943 19.7233 7.99102 19.5784 8.29245 19.2885C8.59388 19.0048 8.74459 18.641 8.74459 18.1969V9.20485H10.0433V18.1969C10.0433 18.7273 9.91502 19.2022 9.65849 19.6216C9.40837 20.0471 9.06205 20.3833 8.61953 20.63C8.18342 20.8767 7.6928 21 7.14767 21Z" fill="black"/>
</svg>
