<svg width="139" height="142" viewBox="0 0 139 142" fill="none" xmlns="http://www.w3.org/2000/svg">
<path fill-rule="evenodd" clip-rule="evenodd" d="M96.2044 87.0845H78.7231H59.6499H42.1849H13.8789C12.5635 87.0845 11.4474 87.5008 10.5305 88.3333C9.65359 89.1659 9.21512 90.2165 9.21512 91.4852C9.21512 92.7538 9.65359 93.8243 10.5305 94.6965C11.4474 95.529 12.5635 95.9453 13.8789 95.9453H133.523C134.838 95.9453 135.934 95.529 136.811 94.6965C137.728 93.8243 138.187 92.7538 138.187 91.4852C138.187 90.2165 137.728 89.1659 136.811 88.3333C135.934 87.5008 134.838 87.0845 133.523 87.0845H96.2044ZM4.8503 118.781C3.53488 118.781 2.41876 118.345 1.50195 117.473C0.624998 116.64 0.186523 115.59 0.186523 114.321C0.186523 113.052 0.624998 112.002 1.50195 111.169C2.41876 110.337 3.53488 109.92 4.8503 109.92H124.494C125.849 109.92 126.966 110.337 127.843 111.169C128.719 112.002 129.158 113.052 129.158 114.321C129.158 115.59 128.719 116.64 127.843 117.473C126.966 118.345 125.849 118.781 124.494 118.781H4.8503ZM13.8789 141.617C12.5635 141.617 11.4474 141.201 10.5305 140.368C9.65359 139.536 9.21512 138.485 9.21512 137.217C9.21512 135.948 9.65359 134.877 10.5305 134.005C11.4474 133.173 12.5635 132.756 13.8789 132.756H133.523C134.838 132.756 135.934 133.173 136.811 134.005C137.728 134.877 138.187 135.948 138.187 137.217C138.187 138.485 137.728 139.536 136.811 140.368C135.934 141.201 134.838 141.617 133.523 141.617H13.8789Z" fill="#BCBCBC"/>
<path d="M36.3607 69.1845C36.3607 72.7526 36.9387 76.1621 38.0947 79.4131C39.0809 82.1866 40.4443 84.7438 42.1849 87.0845H59.6499C56.9474 85.6946 54.6254 83.6925 52.6839 81.0782C50.0929 77.5893 48.7974 73.6248 48.7974 69.1845C48.7974 65.4181 49.7143 62.0086 51.5479 58.9559C53.3815 55.8635 55.833 53.4055 58.9023 51.5818C62.0115 49.7581 65.4396 48.8462 69.1865 48.8462C72.9335 48.8462 76.3416 49.7581 79.411 51.5818C82.5201 53.4055 84.9916 55.8635 86.8252 58.9559C88.6588 62.0086 89.5756 65.4181 89.5756 69.1845C89.5756 73.6248 88.2801 77.5893 85.6891 81.0782C83.7476 83.6925 81.4256 85.6946 78.7231 87.0845H96.2044C97.974 84.7438 99.3519 82.1866 100.338 79.4131C101.494 76.1621 102.072 72.7526 102.072 69.1845C102.072 64.6648 101.215 60.4228 99.5011 56.4582C97.787 52.4936 95.4153 49.0246 92.3858 46.0512C89.3564 43.0381 85.8486 40.6792 81.8624 38.9744C77.9162 37.2697 73.6909 36.4173 69.1865 36.4173C64.6822 36.4173 60.437 37.2697 56.4508 38.9744C52.5046 40.6792 49.0167 43.0381 45.9872 46.0512C42.9976 49.0246 40.6458 52.4936 38.9318 56.4582C37.2177 60.4228 36.3607 64.6648 36.3607 69.1845Z" fill="#FFAA00"/>
<path d="M6.64406 73.0499C4.8503 73.0499 3.31564 72.4751 2.04008 71.3253C0.804374 70.136 0.186523 68.6889 0.186523 66.9841C0.186523 65.3587 0.804374 63.9512 2.04008 62.7619C3.31564 61.5725 4.8503 60.9778 6.64406 60.9778H18.9612C20.7948 60.9778 22.3295 61.5725 23.5652 62.7619C24.8009 63.9512 25.4188 65.3587 25.4188 66.9841C25.4586 68.6889 24.8408 70.136 23.5652 71.3253C22.3295 72.5147 20.7948 73.1094 18.9612 73.1094L6.64406 73.0499Z" fill="#FFAA00"/>
<path d="M38.274 38.4392C37.0782 39.6286 35.6033 40.2034 33.8494 40.1638C32.1354 40.1241 30.6406 39.47 29.365 38.2013L20.6354 29.5784C19.32 28.2701 18.6623 26.7635 18.6623 25.0588C18.6623 23.3144 19.2402 21.8673 20.3962 20.7176C21.5921 19.5678 23.047 19.0128 24.761 19.0524C26.4751 19.0524 27.9699 19.6868 29.2454 20.9554L38.0349 29.6379C39.3104 30.8669 39.9482 32.3536 39.9482 34.098C39.9881 35.8028 39.43 37.2498 38.274 38.4392Z" fill="#FFAA00"/>
<path d="M69.1865 25.7129C67.5124 25.7526 66.0773 25.1381 64.8815 23.8694C63.6857 22.6007 63.0877 21.0744 63.0877 19.2903V6.98033C63.0877 5.19627 63.6857 3.68973 64.8815 2.46071C66.0773 1.2317 67.5124 0.617188 69.1865 0.617188C70.8607 0.617188 72.2957 1.2317 73.4916 2.46071C74.6874 3.68973 75.2853 5.19627 75.2853 6.98033V19.2903C75.2853 21.0744 74.6874 22.6007 73.4916 23.8694C72.2957 25.0984 70.8607 25.7129 69.1865 25.7129Z" fill="#FFAA00"/>
<path d="M100.159 38.4392C98.963 37.2895 98.385 35.8424 98.4248 34.098C98.4647 32.3536 99.1025 30.8669 100.338 29.6379L109.128 20.9554C110.403 19.6868 111.898 19.0326 113.612 18.993C115.366 18.9533 116.801 19.5282 117.917 20.7176C119.113 21.9069 119.711 23.354 119.711 25.0588C119.711 26.7635 119.073 28.2701 117.797 29.5784L109.008 38.2013C107.732 39.47 106.218 40.1241 104.464 40.1638C102.75 40.2034 101.315 39.6286 100.159 38.4392Z" fill="#FFAA00"/>
<path d="M119.412 73.0499C117.618 73.0499 116.083 72.4751 114.808 71.3253C113.572 70.136 112.954 68.6889 112.954 66.9841C112.914 65.3587 113.532 63.9512 114.808 62.7619C116.083 61.5725 117.618 60.9778 119.412 60.9778H131.789C133.583 60.9778 135.097 61.5725 136.333 62.7619C137.569 63.9512 138.187 65.3587 138.187 66.9841C138.187 68.6889 137.569 70.136 136.333 71.3253C135.097 72.5147 133.583 73.1094 131.789 73.1094L119.412 73.0499Z" fill="#FFAA00"/>
</svg>
