<svg width="155" height="159" viewBox="0 0 155 159" fill="none" xmlns="http://www.w3.org/2000/svg">
<path fill-rule="evenodd" clip-rule="evenodd" d="M33.3776 104.612C26.5409 104.612 20.6188 103.235 15.611 100.48C10.6469 97.6817 6.79309 93.9214 4.04973 89.1991C1.34991 84.4768 0 79.2079 0 73.3925C0 68.4953 0.936227 64.0791 2.80868 60.1438C4.72468 56.1648 7.31563 52.798 10.5815 50.0433C13.8475 47.2449 17.5488 45.168 21.6856 43.8125C22.4259 37.691 24.1895 31.9849 26.9764 26.6941C29.7633 21.3597 33.3558 16.703 37.7539 12.724C42.152 8.74501 47.1597 5.64053 52.7771 3.41055C58.438 1.13685 64.4908 0 70.9355 0C78.1205 0 84.4999 1.15871 90.0737 3.47614C95.6476 5.74984 100.481 8.87618 104.574 12.8552C108.711 16.8341 112.064 21.3597 114.633 26.4318C120.381 26.4318 125.694 27.4156 130.571 29.3832C135.492 31.3509 139.781 34.1055 143.439 37.6473C147.097 41.189 149.927 45.3429 151.93 50.1089C153.977 54.8312 155 59.9689 155 65.522C155 70.9439 153.998 76.016 151.995 80.7383C150.036 85.4606 147.249 89.6145 143.635 93.1999C140.064 96.7854 135.862 99.5838 131.028 101.595C126.195 103.606 120.947 104.612 115.287 104.612H33.3776Z" fill="#727272"/>
<path fill-rule="evenodd" clip-rule="evenodd" d="M33.3776 104.612C26.5409 104.612 20.6188 103.235 15.611 100.48C10.6469 97.6817 6.79309 93.9214 4.04973 89.1991C1.34991 84.4768 0 79.2079 0 73.3925C0 68.4953 0.936227 64.0791 2.80868 60.1438C4.72468 56.1648 7.31563 52.798 10.5815 50.0433C13.8475 47.2449 17.5488 45.168 21.6856 43.8125C22.4259 37.691 24.1895 31.9849 26.9764 26.6941C29.7633 21.3597 33.3558 16.703 37.7539 12.724C42.152 8.74501 47.1597 5.64053 52.7771 3.41055C58.438 1.13685 64.4908 0 70.9355 0C78.1205 0 84.4999 1.15871 90.0737 3.47614C95.6476 5.74984 100.481 8.87618 104.574 12.8552C108.711 16.8341 112.064 21.3597 114.633 26.4318C120.381 26.4318 125.694 27.4156 130.571 29.3832C135.492 31.3509 139.781 34.1055 143.439 37.6473C147.097 41.189 149.927 45.3429 151.93 50.1089C153.977 54.8312 155 59.9689 155 65.522C155 70.9439 153.998 76.016 151.995 80.7383C150.036 85.4606 147.249 89.6145 143.635 93.1999C140.064 96.7854 135.862 99.5838 131.028 101.595C126.195 103.606 120.947 104.612 115.287 104.612H33.3776Z" fill="#727272"/>
<path d="M101.635 156.426C100.982 157.563 100.024 158.328 98.7611 158.722C97.4982 159.115 96.279 158.984 95.1032 158.328C93.9275 157.629 93.1872 156.645 92.8824 155.377C92.6212 154.109 92.8389 152.885 93.5356 151.704L112.543 118.648C113.196 117.467 114.133 116.702 115.352 116.352C116.615 115.959 117.834 116.112 119.01 116.811C120.229 117.424 120.991 118.386 121.296 119.697C121.601 121.009 121.405 122.233 120.708 123.37L101.635 156.426Z" fill="#727272"/>
<path d="M101.635 156.426C100.982 157.563 100.024 158.328 98.7611 158.722C97.4982 159.115 96.279 158.984 95.1032 158.328C93.9275 157.629 93.1872 156.645 92.8824 155.377C92.6212 154.109 92.8389 152.885 93.5356 151.704L112.543 118.648C113.196 117.467 114.133 116.702 115.352 116.352C116.615 115.959 117.834 116.112 119.01 116.811C120.229 117.424 120.991 118.386 121.296 119.697C121.601 121.009 121.405 122.233 120.708 123.37L101.635 156.426Z" fill="#727272"/>
<path d="M75.7038 156.426C75.007 157.607 74.0273 158.394 72.7644 158.787C71.5016 159.181 70.2823 159.028 69.1066 158.328C67.8873 157.629 67.1253 156.645 66.8205 155.377C66.5592 154.109 66.7552 152.906 67.4083 151.77L86.4159 118.779C87.1127 117.511 88.0707 116.702 89.2899 116.352C90.5527 115.959 91.7938 116.112 93.0131 116.811C94.1888 117.511 94.9291 118.495 95.2339 119.763C95.5387 121.031 95.3427 122.277 94.646 123.501L75.7038 156.426Z" fill="#727272"/>
<path d="M75.7038 156.426C75.007 157.607 74.0273 158.394 72.7644 158.787C71.5016 159.181 70.2823 159.028 69.1066 158.328C67.8873 157.629 67.1253 156.645 66.8205 155.377C66.5592 154.109 66.7552 152.906 67.4083 151.77L86.4159 118.779C87.1127 117.511 88.0707 116.702 89.2899 116.352C90.5527 115.959 91.7938 116.112 93.0131 116.811C94.1888 117.511 94.9291 118.495 95.2339 119.763C95.5387 121.031 95.3427 122.277 94.646 123.501L75.7038 156.426Z" fill="#727272"/>
<path d="M49.7724 156.426C49.0757 157.563 48.0959 158.328 46.8331 158.722C45.5703 159.115 44.351 158.984 43.1753 158.328C41.956 157.629 41.194 156.645 40.8892 155.377C40.6279 154.109 40.8238 152.906 41.477 151.77L60.4846 118.713C61.2249 117.489 62.2047 116.702 63.4239 116.352C64.6432 115.959 65.8625 116.112 67.0817 116.811C68.2575 117.467 68.9977 118.451 69.3026 119.763C69.6074 121.031 69.4114 122.255 68.7147 123.436L49.7724 156.426Z" fill="#727272"/>
<path d="M49.7724 156.426C49.0757 157.563 48.0959 158.328 46.8331 158.722C45.5703 159.115 44.351 158.984 43.1753 158.328C41.956 157.629 41.194 156.645 40.8892 155.377C40.6279 154.109 40.8238 152.906 41.477 151.77L60.4846 118.713C61.2249 117.489 62.2047 116.702 63.4239 116.352C64.6432 115.959 65.8625 116.112 67.0817 116.811C68.2575 117.467 68.9977 118.451 69.3026 119.763C69.6074 121.031 69.4114 122.255 68.7147 123.436L49.7724 156.426Z" fill="#727272"/>
<path d="M23.6452 156.426C22.9484 157.607 21.9687 158.394 20.7059 158.787C19.4866 159.181 18.2673 159.028 17.048 158.328C15.8288 157.629 15.0667 156.645 14.7619 155.377C14.5006 154.109 14.6966 152.906 15.3498 151.77L34.4227 118.779C35.1194 117.511 36.0774 116.702 37.2967 116.352C38.5159 115.959 39.7352 116.112 40.9545 116.811C42.1738 117.511 42.914 118.495 43.1753 119.763C43.4801 121.031 43.3059 122.277 42.6528 123.501L23.6452 156.426Z" fill="#727272"/>
<path d="M23.6452 156.426C22.9484 157.607 21.9687 158.394 20.7059 158.787C19.4866 159.181 18.2673 159.028 17.048 158.328C15.8288 157.629 15.0667 156.645 14.7619 155.377C14.5006 154.109 14.6966 152.906 15.3498 151.77L34.4227 118.779C35.1194 117.511 36.0774 116.702 37.2967 116.352C38.5159 115.959 39.7352 116.112 40.9545 116.811C42.1738 117.511 42.914 118.495 43.1753 119.763C43.4801 121.031 43.3059 122.277 42.6528 123.501L23.6452 156.426Z" fill="#727272"/>
</svg>
